<mxfile host="app.diagrams.net" modified="2023-12-15T06:12:39.559Z" agent="Mozilla/5.0 (Macintosh; Intel Mac OS X 10.15; rv:120.0) Gecko/20100101 Firefox/120.0" etag="apJWAjAImVU0h6CBMiXX" version="22.1.9" type="github">
  <diagram name="第 1 页" id="qwf2FPHdD3lJ28nGBaiQ">
    <mxGraphModel dx="1414" dy="635" grid="0" gridSize="10" guides="1" tooltips="1" connect="1" arrows="1" fold="1" page="1" pageScale="1" pageWidth="827" pageHeight="1169" math="0" shadow="0">
      <root>
        <mxCell id="0" />
        <mxCell id="1" parent="0" />
        <mxCell id="heY3uBJSoqg5BncuLF00-80" value="" style="rounded=0;whiteSpace=wrap;html=1;strokeColor=#FF0000;" vertex="1" parent="1">
          <mxGeometry x="559" y="648" width="172" height="96" as="geometry" />
        </mxCell>
        <mxCell id="heY3uBJSoqg5BncuLF00-78" value="" style="rounded=0;whiteSpace=wrap;html=1;strokeColor=#FF0000;" vertex="1" parent="1">
          <mxGeometry x="137.5" y="656" width="151" height="68" as="geometry" />
        </mxCell>
        <mxCell id="heY3uBJSoqg5BncuLF00-77" value="" style="rounded=0;whiteSpace=wrap;html=1;strokeColor=#FF0000;" vertex="1" parent="1">
          <mxGeometry x="230" y="523" width="79" height="78" as="geometry" />
        </mxCell>
        <mxCell id="heY3uBJSoqg5BncuLF00-75" style="edgeStyle=orthogonalEdgeStyle;rounded=0;orthogonalLoop=1;jettySize=auto;html=1;exitX=1;exitY=0.5;exitDx=0;exitDy=0;entryX=0;entryY=0.5;entryDx=0;entryDy=0;curved=1;" edge="1" parent="1" source="heY3uBJSoqg5BncuLF00-73" target="heY3uBJSoqg5BncuLF00-64">
          <mxGeometry relative="1" as="geometry" />
        </mxCell>
        <mxCell id="heY3uBJSoqg5BncuLF00-73" value="" style="ellipse;whiteSpace=wrap;html=1;" vertex="1" parent="1">
          <mxGeometry x="70" y="495" width="120" height="69" as="geometry" />
        </mxCell>
        <mxCell id="heY3uBJSoqg5BncuLF00-36" value="" style="rounded=0;whiteSpace=wrap;html=1;strokeColor=#FF0000;" vertex="1" parent="1">
          <mxGeometry x="160" y="274" width="80" height="26" as="geometry" />
        </mxCell>
        <mxCell id="heY3uBJSoqg5BncuLF00-13" value="" style="rounded=0;whiteSpace=wrap;html=1;fontStyle=1" vertex="1" parent="1">
          <mxGeometry x="300" y="290" width="230" height="160" as="geometry" />
        </mxCell>
        <mxCell id="heY3uBJSoqg5BncuLF00-1" value="" style="rounded=0;whiteSpace=wrap;html=1;" vertex="1" parent="1">
          <mxGeometry x="140" y="310" width="130" height="50" as="geometry" />
        </mxCell>
        <mxCell id="heY3uBJSoqg5BncuLF00-3" value="&lt;div align=&quot;left&quot;&gt;&lt;b&gt;&lt;font color=&quot;#3333ff&quot;&gt;metric = load&lt;/font&gt;&lt;/b&gt;&lt;/div&gt;&lt;div align=&quot;left&quot;&gt;&lt;b&gt;ip = 192.168.0.1&lt;/b&gt;&lt;/div&gt;&lt;div align=&quot;left&quot;&gt;&lt;b&gt;hostname = horaedb&lt;br&gt;&lt;/b&gt;&lt;/div&gt;" style="text;html=1;strokeColor=none;fillColor=none;align=left;verticalAlign=middle;whiteSpace=wrap;rounded=0;" vertex="1" parent="1">
          <mxGeometry x="145" y="320" width="120" height="30" as="geometry" />
        </mxCell>
        <mxCell id="heY3uBJSoqg5BncuLF00-24" style="edgeStyle=orthogonalEdgeStyle;rounded=0;orthogonalLoop=1;jettySize=auto;html=1;exitX=0;exitY=0.5;exitDx=0;exitDy=0;entryX=1;entryY=0.5;entryDx=0;entryDy=0;fontStyle=1" edge="1" parent="1" source="heY3uBJSoqg5BncuLF00-5" target="heY3uBJSoqg5BncuLF00-1">
          <mxGeometry relative="1" as="geometry" />
        </mxCell>
        <mxCell id="heY3uBJSoqg5BncuLF00-5" value="series key 1" style="rounded=0;whiteSpace=wrap;html=1;fontStyle=1" vertex="1" parent="1">
          <mxGeometry x="310" y="320" width="90" height="30" as="geometry" />
        </mxCell>
        <mxCell id="heY3uBJSoqg5BncuLF00-6" value="series key 2" style="rounded=0;whiteSpace=wrap;html=1;fontStyle=1" vertex="1" parent="1">
          <mxGeometry x="310" y="350" width="90" height="30" as="geometry" />
        </mxCell>
        <mxCell id="heY3uBJSoqg5BncuLF00-7" value="&lt;span&gt;...&lt;/span&gt;" style="rounded=0;whiteSpace=wrap;html=1;fontStyle=1" vertex="1" parent="1">
          <mxGeometry x="310" y="380" width="90" height="30" as="geometry" />
        </mxCell>
        <mxCell id="heY3uBJSoqg5BncuLF00-8" value="series key n" style="rounded=0;whiteSpace=wrap;html=1;fontStyle=1" vertex="1" parent="1">
          <mxGeometry x="310" y="410" width="90" height="30" as="geometry" />
        </mxCell>
        <mxCell id="heY3uBJSoqg5BncuLF00-31" style="edgeStyle=orthogonalEdgeStyle;rounded=0;orthogonalLoop=1;jettySize=auto;html=1;exitX=1;exitY=0.5;exitDx=0;exitDy=0;entryX=0;entryY=0.75;entryDx=0;entryDy=0;" edge="1" parent="1" source="heY3uBJSoqg5BncuLF00-9" target="heY3uBJSoqg5BncuLF00-27">
          <mxGeometry relative="1" as="geometry" />
        </mxCell>
        <mxCell id="heY3uBJSoqg5BncuLF00-9" value="data" style="rounded=0;whiteSpace=wrap;html=1;fontStyle=1" vertex="1" parent="1">
          <mxGeometry x="430" y="320" width="90" height="30" as="geometry" />
        </mxCell>
        <mxCell id="heY3uBJSoqg5BncuLF00-10" value="data" style="rounded=0;whiteSpace=wrap;html=1;fontStyle=1" vertex="1" parent="1">
          <mxGeometry x="430" y="350" width="90" height="30" as="geometry" />
        </mxCell>
        <mxCell id="heY3uBJSoqg5BncuLF00-11" value="&lt;span&gt;...&lt;/span&gt;" style="rounded=0;whiteSpace=wrap;html=1;fontStyle=1" vertex="1" parent="1">
          <mxGeometry x="430" y="380" width="90" height="30" as="geometry" />
        </mxCell>
        <mxCell id="heY3uBJSoqg5BncuLF00-12" value="data" style="rounded=0;whiteSpace=wrap;html=1;fontStyle=1" vertex="1" parent="1">
          <mxGeometry x="430" y="410" width="90" height="30" as="geometry" />
        </mxCell>
        <mxCell id="heY3uBJSoqg5BncuLF00-14" value="Key" style="text;html=1;strokeColor=none;fillColor=none;align=center;verticalAlign=middle;whiteSpace=wrap;rounded=0;fontStyle=1" vertex="1" parent="1">
          <mxGeometry x="325" y="290" width="60" height="30" as="geometry" />
        </mxCell>
        <mxCell id="heY3uBJSoqg5BncuLF00-15" value="Value" style="text;html=1;strokeColor=none;fillColor=none;align=center;verticalAlign=middle;whiteSpace=wrap;rounded=0;fontStyle=1" vertex="1" parent="1">
          <mxGeometry x="445" y="290" width="60" height="30" as="geometry" />
        </mxCell>
        <mxCell id="heY3uBJSoqg5BncuLF00-25" value="2023-12-12 00:00, load" style="rounded=0;whiteSpace=wrap;html=1;fontStyle=1" vertex="1" parent="1">
          <mxGeometry x="560" y="300" width="150" height="20" as="geometry" />
        </mxCell>
        <mxCell id="heY3uBJSoqg5BncuLF00-27" value="2023-12-12 00:01, load" style="rounded=0;whiteSpace=wrap;html=1;fontStyle=1" vertex="1" parent="1">
          <mxGeometry x="560" y="320" width="150" height="20" as="geometry" />
        </mxCell>
        <mxCell id="heY3uBJSoqg5BncuLF00-28" value="&lt;span&gt;...&lt;br&gt;&lt;/span&gt;" style="rounded=0;whiteSpace=wrap;html=1;fontStyle=1" vertex="1" parent="1">
          <mxGeometry x="560" y="340" width="150" height="20" as="geometry" />
        </mxCell>
        <mxCell id="heY3uBJSoqg5BncuLF00-29" value="2023-12-1x hh:mm, load" style="rounded=0;whiteSpace=wrap;html=1;fontStyle=1" vertex="1" parent="1">
          <mxGeometry x="560" y="360" width="150" height="20" as="geometry" />
        </mxCell>
        <mxCell id="heY3uBJSoqg5BncuLF00-33" value="&lt;font color=&quot;#3333ff&quot; style=&quot;font-size: 13px;&quot;&gt;&lt;b&gt;指标 + 标签&lt;br&gt;&lt;/b&gt;&lt;/font&gt;" style="text;html=1;strokeColor=none;fillColor=none;align=center;verticalAlign=middle;whiteSpace=wrap;rounded=0;" vertex="1" parent="1">
          <mxGeometry x="163" y="273" width="74" height="30" as="geometry" />
        </mxCell>
        <mxCell id="heY3uBJSoqg5BncuLF00-34" value="&lt;font color=&quot;#3333ff&quot;&gt;&lt;b&gt;时间 + 数据集&lt;br&gt;&lt;/b&gt;&lt;/font&gt;" style="text;html=1;strokeColor=none;fillColor=none;align=center;verticalAlign=middle;whiteSpace=wrap;rounded=0;" vertex="1" parent="1">
          <mxGeometry x="597" y="265" width="84" height="30" as="geometry" />
        </mxCell>
        <mxCell id="heY3uBJSoqg5BncuLF00-37" style="edgeStyle=orthogonalEdgeStyle;rounded=0;orthogonalLoop=1;jettySize=auto;html=1;exitX=1;exitY=0.5;exitDx=0;exitDy=0;entryX=0.5;entryY=0;entryDx=0;entryDy=0;strokeColor=#FF0000;curved=1;" edge="1" parent="1" source="heY3uBJSoqg5BncuLF00-35" target="heY3uBJSoqg5BncuLF00-33">
          <mxGeometry relative="1" as="geometry" />
        </mxCell>
        <mxCell id="heY3uBJSoqg5BncuLF00-35" value="&lt;font color=&quot;#ff0000&quot; style=&quot;font-size: 17px;&quot;&gt;&lt;b style=&quot;font-size: 17px;&quot;&gt;时间线&lt;/b&gt;&lt;/font&gt;" style="text;html=1;strokeColor=none;fillColor=none;align=center;verticalAlign=middle;whiteSpace=wrap;rounded=0;fontColor=#3333FF;fontSize=17;" vertex="1" parent="1">
          <mxGeometry x="109" y="222" width="60" height="30" as="geometry" />
        </mxCell>
        <mxCell id="heY3uBJSoqg5BncuLF00-42" value="" style="rounded=0;whiteSpace=wrap;html=1;" vertex="1" parent="1">
          <mxGeometry x="150" y="666" width="130" height="50" as="geometry" />
        </mxCell>
        <mxCell id="heY3uBJSoqg5BncuLF00-43" value="&lt;div align=&quot;left&quot;&gt;&lt;b&gt;&lt;font color=&quot;#3333ff&quot;&gt;metric = load&lt;/font&gt;&lt;/b&gt;&lt;/div&gt;&lt;div align=&quot;left&quot;&gt;&lt;b&gt;ip = 192.168.0.1&lt;/b&gt;&lt;/div&gt;&lt;div align=&quot;left&quot;&gt;&lt;b&gt;hostname = horaedb&lt;br&gt;&lt;/b&gt;&lt;/div&gt;" style="text;html=1;strokeColor=none;fillColor=none;align=left;verticalAlign=middle;whiteSpace=wrap;rounded=0;" vertex="1" parent="1">
          <mxGeometry x="155" y="676" width="120" height="30" as="geometry" />
        </mxCell>
        <mxCell id="heY3uBJSoqg5BncuLF00-41" value="" style="rounded=0;whiteSpace=wrap;html=1;fontStyle=1" vertex="1" parent="1">
          <mxGeometry x="310" y="646" width="230" height="160" as="geometry" />
        </mxCell>
        <mxCell id="heY3uBJSoqg5BncuLF00-44" style="edgeStyle=orthogonalEdgeStyle;rounded=0;orthogonalLoop=1;jettySize=auto;html=1;exitX=0;exitY=0.5;exitDx=0;exitDy=0;entryX=1;entryY=0.5;entryDx=0;entryDy=0;fontStyle=1" edge="1" parent="1" source="heY3uBJSoqg5BncuLF00-45" target="heY3uBJSoqg5BncuLF00-42">
          <mxGeometry relative="1" as="geometry" />
        </mxCell>
        <mxCell id="heY3uBJSoqg5BncuLF00-45" value="series key 1" style="rounded=0;whiteSpace=wrap;html=1;fontStyle=1" vertex="1" parent="1">
          <mxGeometry x="320" y="676" width="90" height="30" as="geometry" />
        </mxCell>
        <mxCell id="heY3uBJSoqg5BncuLF00-46" value="series key 2" style="rounded=0;whiteSpace=wrap;html=1;fontStyle=1" vertex="1" parent="1">
          <mxGeometry x="320" y="706" width="90" height="30" as="geometry" />
        </mxCell>
        <mxCell id="heY3uBJSoqg5BncuLF00-47" value="&lt;span&gt;...&lt;/span&gt;" style="rounded=0;whiteSpace=wrap;html=1;fontStyle=1" vertex="1" parent="1">
          <mxGeometry x="320" y="736" width="90" height="30" as="geometry" />
        </mxCell>
        <mxCell id="heY3uBJSoqg5BncuLF00-48" value="series key n" style="rounded=0;whiteSpace=wrap;html=1;fontStyle=1" vertex="1" parent="1">
          <mxGeometry x="320" y="766" width="90" height="30" as="geometry" />
        </mxCell>
        <mxCell id="heY3uBJSoqg5BncuLF00-49" style="edgeStyle=orthogonalEdgeStyle;rounded=0;orthogonalLoop=1;jettySize=auto;html=1;exitX=1;exitY=0.5;exitDx=0;exitDy=0;entryX=0;entryY=0.75;entryDx=0;entryDy=0;" edge="1" parent="1" source="heY3uBJSoqg5BncuLF00-50" target="heY3uBJSoqg5BncuLF00-57">
          <mxGeometry relative="1" as="geometry" />
        </mxCell>
        <mxCell id="heY3uBJSoqg5BncuLF00-50" value="data" style="rounded=0;whiteSpace=wrap;html=1;fontStyle=1" vertex="1" parent="1">
          <mxGeometry x="440" y="676" width="90" height="30" as="geometry" />
        </mxCell>
        <mxCell id="heY3uBJSoqg5BncuLF00-51" value="data" style="rounded=0;whiteSpace=wrap;html=1;fontStyle=1" vertex="1" parent="1">
          <mxGeometry x="440" y="706" width="90" height="30" as="geometry" />
        </mxCell>
        <mxCell id="heY3uBJSoqg5BncuLF00-52" value="&lt;span&gt;...&lt;/span&gt;" style="rounded=0;whiteSpace=wrap;html=1;fontStyle=1" vertex="1" parent="1">
          <mxGeometry x="440" y="736" width="90" height="30" as="geometry" />
        </mxCell>
        <mxCell id="heY3uBJSoqg5BncuLF00-53" value="data" style="rounded=0;whiteSpace=wrap;html=1;fontStyle=1" vertex="1" parent="1">
          <mxGeometry x="440" y="766" width="90" height="30" as="geometry" />
        </mxCell>
        <mxCell id="heY3uBJSoqg5BncuLF00-54" value="Key" style="text;html=1;strokeColor=none;fillColor=none;align=center;verticalAlign=middle;whiteSpace=wrap;rounded=0;fontStyle=1" vertex="1" parent="1">
          <mxGeometry x="335" y="646" width="60" height="30" as="geometry" />
        </mxCell>
        <mxCell id="heY3uBJSoqg5BncuLF00-56" value="2023-12-12 00:00, load" style="rounded=0;whiteSpace=wrap;html=1;fontStyle=1" vertex="1" parent="1">
          <mxGeometry x="570" y="656" width="150" height="20" as="geometry" />
        </mxCell>
        <mxCell id="heY3uBJSoqg5BncuLF00-55" value="Value" style="text;html=1;strokeColor=none;fillColor=none;align=center;verticalAlign=middle;whiteSpace=wrap;rounded=0;fontStyle=1" vertex="1" parent="1">
          <mxGeometry x="455" y="646" width="60" height="30" as="geometry" />
        </mxCell>
        <mxCell id="heY3uBJSoqg5BncuLF00-57" value="2023-12-12 00:01, load" style="rounded=0;whiteSpace=wrap;html=1;fontStyle=1" vertex="1" parent="1">
          <mxGeometry x="570" y="676" width="150" height="20" as="geometry" />
        </mxCell>
        <mxCell id="heY3uBJSoqg5BncuLF00-58" value="&lt;span&gt;...&lt;br&gt;&lt;/span&gt;" style="rounded=0;whiteSpace=wrap;html=1;fontStyle=1" vertex="1" parent="1">
          <mxGeometry x="570" y="696" width="150" height="20" as="geometry" />
        </mxCell>
        <mxCell id="heY3uBJSoqg5BncuLF00-59" value="2023-12-1x hh:mm, load" style="rounded=0;whiteSpace=wrap;html=1;fontStyle=1" vertex="1" parent="1">
          <mxGeometry x="570" y="716" width="150" height="20" as="geometry" />
        </mxCell>
        <mxCell id="heY3uBJSoqg5BncuLF00-67" style="edgeStyle=orthogonalEdgeStyle;rounded=0;orthogonalLoop=1;jettySize=auto;html=1;exitX=1;exitY=0.5;exitDx=0;exitDy=0;entryX=0;entryY=1;entryDx=0;entryDy=0;curved=1;" edge="1" parent="1" source="heY3uBJSoqg5BncuLF00-64" target="heY3uBJSoqg5BncuLF00-54">
          <mxGeometry relative="1" as="geometry">
            <Array as="points">
              <mxPoint x="335" y="563" />
            </Array>
          </mxGeometry>
        </mxCell>
        <mxCell id="heY3uBJSoqg5BncuLF00-64" value="&lt;font color=&quot;#3333ff&quot;&gt;&lt;b&gt;倒排索引&lt;br&gt;&lt;/b&gt;&lt;/font&gt;" style="rounded=0;whiteSpace=wrap;html=1;" vertex="1" parent="1">
          <mxGeometry x="243" y="533" width="55" height="60" as="geometry" />
        </mxCell>
        <mxCell id="heY3uBJSoqg5BncuLF00-68" value="&lt;div align=&quot;left&quot;&gt;&lt;b&gt;&lt;font color=&quot;#3333ff&quot;&gt;metric = load&lt;/font&gt;&lt;/b&gt;&lt;/div&gt;&lt;div align=&quot;left&quot;&gt;&lt;b&gt;ip = 192.168.0.1&lt;/b&gt;&lt;/div&gt;" style="text;whiteSpace=wrap;html=1;" vertex="1" parent="1">
          <mxGeometry x="84" y="517" width="95" height="38" as="geometry" />
        </mxCell>
        <mxCell id="heY3uBJSoqg5BncuLF00-71" value="&lt;font color=&quot;#3333ff&quot;&gt;&lt;b&gt;查询条件&lt;/b&gt;&lt;/font&gt;" style="text;html=1;strokeColor=none;fillColor=none;align=center;verticalAlign=middle;whiteSpace=wrap;rounded=0;" vertex="1" parent="1">
          <mxGeometry x="99.5" y="495" width="60" height="28" as="geometry" />
        </mxCell>
        <mxCell id="heY3uBJSoqg5BncuLF00-82" value="&lt;font color=&quot;#3333ff&quot; style=&quot;font-size: 13px;&quot;&gt;&lt;b&gt;指标 + 标签&lt;br&gt;&lt;/b&gt;&lt;/font&gt;" style="text;html=1;strokeColor=none;fillColor=none;align=center;verticalAlign=middle;whiteSpace=wrap;rounded=0;" vertex="1" parent="1">
          <mxGeometry x="176" y="627" width="74" height="30" as="geometry" />
        </mxCell>
        <mxCell id="heY3uBJSoqg5BncuLF00-83" value="&lt;font color=&quot;#3333ff&quot;&gt;&lt;b&gt;时间 + 数据集&lt;br&gt;&lt;/b&gt;&lt;/font&gt;" style="text;html=1;strokeColor=none;fillColor=none;align=center;verticalAlign=middle;whiteSpace=wrap;rounded=0;" vertex="1" parent="1">
          <mxGeometry x="607" y="621" width="84" height="30" as="geometry" />
        </mxCell>
        <mxCell id="heY3uBJSoqg5BncuLF00-85" value="" style="rounded=0;whiteSpace=wrap;html=1;fontStyle=1" vertex="1" parent="1">
          <mxGeometry x="356.5" y="1482" width="230" height="280" as="geometry" />
        </mxCell>
        <mxCell id="heY3uBJSoqg5BncuLF00-86" value="" style="rounded=0;whiteSpace=wrap;html=1;" vertex="1" parent="1">
          <mxGeometry x="172" y="1417" width="130" height="68" as="geometry" />
        </mxCell>
        <mxCell id="heY3uBJSoqg5BncuLF00-87" value="&lt;div align=&quot;left&quot;&gt;&lt;b&gt;&lt;font color=&quot;#3333ff&quot;&gt;metric = load&lt;/font&gt;&lt;/b&gt;&lt;/div&gt;&lt;div align=&quot;left&quot;&gt;&lt;b&gt;ip = 192.168.0.1&lt;/b&gt;&lt;/div&gt;&lt;div align=&quot;left&quot;&gt;&lt;b&gt;hostname = horaedb&lt;br&gt;&lt;/b&gt;&lt;/div&gt;&lt;div&gt;&lt;font color=&quot;#ff0000&quot;&gt;&lt;b&gt;trace_id = A01&lt;/b&gt;&lt;/font&gt;&lt;br&gt;&lt;/div&gt;" style="text;html=1;strokeColor=none;fillColor=none;align=left;verticalAlign=middle;whiteSpace=wrap;rounded=0;" vertex="1" parent="1">
          <mxGeometry x="177" y="1427" width="120" height="48" as="geometry" />
        </mxCell>
        <mxCell id="heY3uBJSoqg5BncuLF00-88" style="edgeStyle=orthogonalEdgeStyle;rounded=0;orthogonalLoop=1;jettySize=auto;html=1;exitX=0;exitY=0.5;exitDx=0;exitDy=0;entryX=1;entryY=0.5;entryDx=0;entryDy=0;fontStyle=1" edge="1" parent="1" source="heY3uBJSoqg5BncuLF00-89" target="heY3uBJSoqg5BncuLF00-86">
          <mxGeometry relative="1" as="geometry" />
        </mxCell>
        <mxCell id="heY3uBJSoqg5BncuLF00-89" value="series key 1" style="rounded=0;whiteSpace=wrap;html=1;fontStyle=1" vertex="1" parent="1">
          <mxGeometry x="366.5" y="1512" width="90" height="30" as="geometry" />
        </mxCell>
        <mxCell id="heY3uBJSoqg5BncuLF00-90" value="series key 2" style="rounded=0;whiteSpace=wrap;html=1;fontStyle=1" vertex="1" parent="1">
          <mxGeometry x="366.5" y="1542" width="90" height="30" as="geometry" />
        </mxCell>
        <mxCell id="heY3uBJSoqg5BncuLF00-91" value="&lt;span&gt;...&lt;/span&gt;" style="rounded=0;whiteSpace=wrap;html=1;fontStyle=1" vertex="1" parent="1">
          <mxGeometry x="366.5" y="1572" width="90" height="30" as="geometry" />
        </mxCell>
        <mxCell id="heY3uBJSoqg5BncuLF00-92" value="series key n" style="rounded=0;whiteSpace=wrap;html=1;fontStyle=1" vertex="1" parent="1">
          <mxGeometry x="366.5" y="1602" width="90" height="30" as="geometry" />
        </mxCell>
        <mxCell id="heY3uBJSoqg5BncuLF00-93" style="edgeStyle=orthogonalEdgeStyle;rounded=0;orthogonalLoop=1;jettySize=auto;html=1;exitX=1;exitY=0.5;exitDx=0;exitDy=0;entryX=0;entryY=0.75;entryDx=0;entryDy=0;" edge="1" parent="1" source="heY3uBJSoqg5BncuLF00-94" target="heY3uBJSoqg5BncuLF00-101">
          <mxGeometry relative="1" as="geometry" />
        </mxCell>
        <mxCell id="heY3uBJSoqg5BncuLF00-94" value="data" style="rounded=0;whiteSpace=wrap;html=1;fontStyle=1" vertex="1" parent="1">
          <mxGeometry x="486.5" y="1512" width="90" height="30" as="geometry" />
        </mxCell>
        <mxCell id="heY3uBJSoqg5BncuLF00-95" value="data" style="rounded=0;whiteSpace=wrap;html=1;fontStyle=1" vertex="1" parent="1">
          <mxGeometry x="486.5" y="1542" width="90" height="30" as="geometry" />
        </mxCell>
        <mxCell id="heY3uBJSoqg5BncuLF00-96" value="&lt;span&gt;...&lt;/span&gt;" style="rounded=0;whiteSpace=wrap;html=1;fontStyle=1" vertex="1" parent="1">
          <mxGeometry x="486.5" y="1572" width="90" height="30" as="geometry" />
        </mxCell>
        <mxCell id="heY3uBJSoqg5BncuLF00-97" value="data" style="rounded=0;whiteSpace=wrap;html=1;fontStyle=1" vertex="1" parent="1">
          <mxGeometry x="486.5" y="1602" width="90" height="30" as="geometry" />
        </mxCell>
        <mxCell id="heY3uBJSoqg5BncuLF00-98" value="Key" style="text;html=1;strokeColor=none;fillColor=none;align=center;verticalAlign=middle;whiteSpace=wrap;rounded=0;fontStyle=1" vertex="1" parent="1">
          <mxGeometry x="381.5" y="1482" width="60" height="30" as="geometry" />
        </mxCell>
        <mxCell id="heY3uBJSoqg5BncuLF00-99" value="Value" style="text;html=1;strokeColor=none;fillColor=none;align=center;verticalAlign=middle;whiteSpace=wrap;rounded=0;fontStyle=1" vertex="1" parent="1">
          <mxGeometry x="501.5" y="1482" width="60" height="30" as="geometry" />
        </mxCell>
        <mxCell id="heY3uBJSoqg5BncuLF00-100" value="2023-12-12 00:00, load" style="rounded=0;whiteSpace=wrap;html=1;fontStyle=1" vertex="1" parent="1">
          <mxGeometry x="616.5" y="1492" width="150" height="20" as="geometry" />
        </mxCell>
        <mxCell id="heY3uBJSoqg5BncuLF00-101" value="2023-12-12 00:01, load" style="rounded=0;whiteSpace=wrap;html=1;fontStyle=1" vertex="1" parent="1">
          <mxGeometry x="616.5" y="1512" width="150" height="20" as="geometry" />
        </mxCell>
        <mxCell id="heY3uBJSoqg5BncuLF00-102" value="&lt;span&gt;...&lt;br&gt;&lt;/span&gt;" style="rounded=0;whiteSpace=wrap;html=1;fontStyle=1" vertex="1" parent="1">
          <mxGeometry x="616.5" y="1532" width="150" height="20" as="geometry" />
        </mxCell>
        <mxCell id="heY3uBJSoqg5BncuLF00-103" value="2023-12-1x hh:mm, load" style="rounded=0;whiteSpace=wrap;html=1;fontStyle=1" vertex="1" parent="1">
          <mxGeometry x="616.5" y="1552" width="150" height="20" as="geometry" />
        </mxCell>
        <mxCell id="heY3uBJSoqg5BncuLF00-104" value="&lt;font color=&quot;#3333ff&quot; style=&quot;font-size: 13px;&quot;&gt;&lt;b&gt;指标 + 标签&lt;br&gt;&lt;/b&gt;&lt;/font&gt;" style="text;html=1;strokeColor=none;fillColor=none;align=center;verticalAlign=middle;whiteSpace=wrap;rounded=0;" vertex="1" parent="1">
          <mxGeometry x="197" y="1386" width="73.5" height="30" as="geometry" />
        </mxCell>
        <mxCell id="heY3uBJSoqg5BncuLF00-105" value="&lt;font color=&quot;#3333ff&quot;&gt;&lt;b&gt;时间 + 数据集&lt;br&gt;&lt;/b&gt;&lt;/font&gt;" style="text;html=1;strokeColor=none;fillColor=none;align=center;verticalAlign=middle;whiteSpace=wrap;rounded=0;" vertex="1" parent="1">
          <mxGeometry x="653.5" y="1457" width="84" height="30" as="geometry" />
        </mxCell>
        <mxCell id="heY3uBJSoqg5BncuLF00-108" value="&lt;div&gt;&lt;font color=&quot;#ff0000&quot;&gt;series key&amp;nbsp;&lt;/font&gt;&lt;/div&gt;&lt;div&gt;&lt;font color=&quot;#ff0000&quot;&gt;n + 1&lt;br&gt;&lt;/font&gt;&lt;/div&gt;" style="rounded=0;whiteSpace=wrap;html=1;fontStyle=1" vertex="1" parent="1">
          <mxGeometry x="366.5" y="1632" width="90" height="30" as="geometry" />
        </mxCell>
        <mxCell id="heY3uBJSoqg5BncuLF00-109" value="&lt;div&gt;&lt;font color=&quot;#ff0000&quot;&gt;series key&amp;nbsp;&lt;/font&gt;&lt;/div&gt;&lt;div&gt;&lt;font color=&quot;#ff0000&quot;&gt;n + 2&lt;br&gt;&lt;/font&gt;&lt;/div&gt;" style="rounded=0;whiteSpace=wrap;html=1;fontStyle=1" vertex="1" parent="1">
          <mxGeometry x="366.5" y="1662" width="90" height="30" as="geometry" />
        </mxCell>
        <mxCell id="heY3uBJSoqg5BncuLF00-111" value="&lt;div&gt;&lt;font color=&quot;#ff0000&quot;&gt;series key&lt;/font&gt;&lt;/div&gt;&lt;div&gt;&lt;font color=&quot;#ff0000&quot;&gt;1000...0 * n&lt;br&gt;&lt;/font&gt;&lt;/div&gt;" style="rounded=0;whiteSpace=wrap;html=1;fontStyle=1" vertex="1" parent="1">
          <mxGeometry x="366.5" y="1722" width="90" height="30" as="geometry" />
        </mxCell>
        <mxCell id="heY3uBJSoqg5BncuLF00-113" value="data" style="rounded=0;whiteSpace=wrap;html=1;fontStyle=1" vertex="1" parent="1">
          <mxGeometry x="486.5" y="1632" width="90" height="30" as="geometry" />
        </mxCell>
        <mxCell id="heY3uBJSoqg5BncuLF00-114" value="data" style="rounded=0;whiteSpace=wrap;html=1;fontStyle=1" vertex="1" parent="1">
          <mxGeometry x="486.5" y="1662" width="90" height="30" as="geometry" />
        </mxCell>
        <mxCell id="heY3uBJSoqg5BncuLF00-116" value="&lt;span&gt;...&lt;/span&gt;" style="rounded=0;whiteSpace=wrap;html=1;fontStyle=1" vertex="1" parent="1">
          <mxGeometry x="486.5" y="1692" width="90" height="30" as="geometry" />
        </mxCell>
        <mxCell id="heY3uBJSoqg5BncuLF00-117" value="data" style="rounded=0;whiteSpace=wrap;html=1;fontStyle=1" vertex="1" parent="1">
          <mxGeometry x="486.5" y="1722" width="90" height="30" as="geometry" />
        </mxCell>
        <mxCell id="heY3uBJSoqg5BncuLF00-118" value="&lt;font color=&quot;#ff0000&quot;&gt;&lt;span&gt;...&lt;/span&gt;&lt;/font&gt;" style="rounded=0;whiteSpace=wrap;html=1;fontStyle=1" vertex="1" parent="1">
          <mxGeometry x="366.5" y="1692" width="90" height="30" as="geometry" />
        </mxCell>
        <mxCell id="heY3uBJSoqg5BncuLF00-148" style="edgeStyle=orthogonalEdgeStyle;rounded=0;orthogonalLoop=1;jettySize=auto;html=1;exitX=1;exitY=0.25;exitDx=0;exitDy=0;entryX=0;entryY=0.75;entryDx=0;entryDy=0;curved=1;strokeColor=#FF0000;" edge="1" parent="1" source="heY3uBJSoqg5BncuLF00-125" target="heY3uBJSoqg5BncuLF00-89">
          <mxGeometry relative="1" as="geometry">
            <Array as="points">
              <mxPoint x="253" y="1719" />
              <mxPoint x="253" y="1535" />
            </Array>
          </mxGeometry>
        </mxCell>
        <mxCell id="heY3uBJSoqg5BncuLF00-150" style="edgeStyle=orthogonalEdgeStyle;rounded=0;orthogonalLoop=1;jettySize=auto;html=1;exitX=1;exitY=0.5;exitDx=0;exitDy=0;curved=1;strokeColor=#FF0000;" edge="1" parent="1" source="heY3uBJSoqg5BncuLF00-125" target="heY3uBJSoqg5BncuLF00-109">
          <mxGeometry relative="1" as="geometry">
            <Array as="points">
              <mxPoint x="310" y="1754" />
              <mxPoint x="310" y="1677" />
            </Array>
          </mxGeometry>
        </mxCell>
        <mxCell id="heY3uBJSoqg5BncuLF00-152" style="edgeStyle=orthogonalEdgeStyle;rounded=0;orthogonalLoop=1;jettySize=auto;html=1;exitX=1;exitY=0.25;exitDx=0;exitDy=0;entryX=0;entryY=0.5;entryDx=0;entryDy=0;curved=1;strokeColor=#FF0000;" edge="1" parent="1" source="heY3uBJSoqg5BncuLF00-125" target="heY3uBJSoqg5BncuLF00-92">
          <mxGeometry relative="1" as="geometry" />
        </mxCell>
        <mxCell id="heY3uBJSoqg5BncuLF00-155" style="edgeStyle=orthogonalEdgeStyle;rounded=0;orthogonalLoop=1;jettySize=auto;html=1;exitX=1;exitY=0.5;exitDx=0;exitDy=0;entryX=0.5;entryY=1;entryDx=0;entryDy=0;curved=1;strokeColor=#FF0000;" edge="1" parent="1" source="heY3uBJSoqg5BncuLF00-125" target="heY3uBJSoqg5BncuLF00-111">
          <mxGeometry relative="1" as="geometry">
            <Array as="points">
              <mxPoint x="183" y="1752" />
              <mxPoint x="275" y="1752" />
              <mxPoint x="275" y="1798" />
              <mxPoint x="412" y="1798" />
            </Array>
          </mxGeometry>
        </mxCell>
        <mxCell id="heY3uBJSoqg5BncuLF00-125" value="&lt;div&gt;&lt;font color=&quot;#ff0000&quot;&gt;&lt;b&gt;巨大的&lt;br&gt;&lt;/b&gt;&lt;/font&gt;&lt;/div&gt;&lt;div&gt;&lt;font color=&quot;#ff0000&quot;&gt;&lt;b&gt;倒排索引&lt;/b&gt;&lt;/font&gt;&lt;/div&gt;" style="rounded=0;whiteSpace=wrap;html=1;" vertex="1" parent="1">
          <mxGeometry x="52" y="1684" width="130.5" height="139" as="geometry" />
        </mxCell>
        <mxCell id="heY3uBJSoqg5BncuLF00-156" style="edgeStyle=orthogonalEdgeStyle;rounded=0;orthogonalLoop=1;jettySize=auto;html=1;exitX=0.5;exitY=1;exitDx=0;exitDy=0;curved=1;strokeColor=#FF0000;" edge="1" parent="1" source="heY3uBJSoqg5BncuLF00-131" target="heY3uBJSoqg5BncuLF00-125">
          <mxGeometry relative="1" as="geometry" />
        </mxCell>
        <mxCell id="heY3uBJSoqg5BncuLF00-131" value="" style="ellipse;whiteSpace=wrap;html=1;" vertex="1" parent="1">
          <mxGeometry x="7" y="1514" width="120" height="69" as="geometry" />
        </mxCell>
        <mxCell id="heY3uBJSoqg5BncuLF00-133" value="&lt;div align=&quot;left&quot;&gt;&lt;b&gt;&lt;font color=&quot;#3333ff&quot;&gt;metric = load&lt;/font&gt;&lt;/b&gt;&lt;/div&gt;&lt;div align=&quot;left&quot;&gt;&lt;b&gt;ip = 192.168.0.1&lt;/b&gt;&lt;/div&gt;" style="text;whiteSpace=wrap;html=1;" vertex="1" parent="1">
          <mxGeometry x="21" y="1536" width="95" height="38" as="geometry" />
        </mxCell>
        <mxCell id="heY3uBJSoqg5BncuLF00-134" value="&lt;font color=&quot;#3333ff&quot;&gt;&lt;b&gt;查询条件&lt;/b&gt;&lt;/font&gt;" style="text;html=1;strokeColor=none;fillColor=none;align=center;verticalAlign=middle;whiteSpace=wrap;rounded=0;" vertex="1" parent="1">
          <mxGeometry x="36.5" y="1514" width="60" height="28" as="geometry" />
        </mxCell>
      </root>
    </mxGraphModel>
  </diagram>
</mxfile>
